<svg xmlns="http://www.w3.org/2000/svg" xmlnsXlink="http://www.w3.org/1999/xlink" viewBox="0 0 841.9 595.3">
  <g fill="#61DAFB">
    <path d="M666.3 296.5c0 32.1-5.8 63.4-16.3 92.6 19.6 16.3 38.2 35.8 54.7 57.8 26.2-37.9 41.9-84.2 41.9-134.6 0-50.4-15.7-96.7-41.9-134.6-16.5 22-35 41.5-54.7 57.8 10.5 29.3 16.3 60.5 16.3 92.6zM520.5 78.1c-21.8 16-45.4 30-70.5 41.5 13.1 30.5 23.5 63.4 30.3 97.4h117.6c-5.1-49.4-21-95.4-46.1-135.8-10.4-2.8-21.2-5.2-32.4-7.2zM320.8 78.1c-11.3 2-22 4.4-32.4 7.2-25.1 40.4-41 86.4-46.1 135.8h117.6c6.8-34 17.2-66.9 30.3-97.4-25.1-11.5-48.6-25.5-70.5-41.5zM89.6 315.7c16.5 22 35 41.5 54.7 57.8-10.5 29.3-16.3 60.5-16.3 92.6 0 32.1 5.8 63.4 16.3 92.6-19.6 16.3-38.2 35.8-54.7 57.8-26.2-37.9-41.9-84.2-41.9-134.6 0-50.4 15.7-96.7 41.9-134.6 16.5 22 35 41.5 54.7 57.8-10.5 29.3-16.3 60.5-16.3 92.6zM736.5 315.7c16.5 22 35 41.5 54.7 57.8-19.6 16.3-38.2 35.8-54.7 57.8-26.2-37.9-41.9-84.2-41.9-134.6 0-50.4 15.7-96.7 41.9-134.6zM261.1 496.9c-13.1-30.5-23.5-63.4-30.3-97.4H113.2c5.1 49.4 21 95.4 46.1 135.8 10.4 2.8 21.2 5.2 32.4 7.2 21.8-16 45.4-30 70.5-41.5zM581.8 496.9c25.1 11.5 48.6 25.5 70.5 41.5 11.3-2 22-4.4 32.4-7.2 25.1-40.4 41-86.4 46.1-135.8H612.1c-6.8 34-17.2 66.9-30.3 97.4zM420.9 297.6c0 35.3-28.7 64-64 64s-64-28.7-64-64 28.7-64 64-64 64 28.7 64 64z"/>
  </g>
</svg>
